<svg width="33" height="32" viewBox="0 0 33 32" fill="none" xmlns="http://www.w3.org/2000/svg">
<path d="M10.3708 24.9004L10.3706 24.9006C8.43676 26.0154 6.01367 24.615 6.01367 22.3871V9.62707C6.01367 7.38744 8.43531 5.99793 10.3706 7.11358L10.3708 7.11369L15.9034 10.2999L15.9041 10.3004L21.4367 13.4999L21.4373 13.5002C23.3702 14.6145 23.3702 17.3996 21.4373 18.5139L21.4367 18.5142L15.9041 21.7138L15.9034 21.7142L10.3708 24.9004Z" fill="white" stroke="white"/>
<path d="M27.4863 25.2398C26.9397 25.2398 26.4863 24.7864 26.4863 24.2398V7.75977C26.4863 7.2131 26.9397 6.75977 27.4863 6.75977C28.033 6.75977 28.4863 7.2131 28.4863 7.75977V24.2398C28.4863 24.7864 28.0463 25.2398 27.4863 25.2398Z" fill="white"/>
</svg>
