<svg width="28" height="28" viewBox="0 0 28 28" fill="none" xmlns="http://www.w3.org/2000/svg">
<path d="M19.6006 10.5H14.8757V17.7917C14.8757 18.27 14.479 18.6667 14.0007 18.6667C13.5223 18.6667 13.1257 18.27 13.1257 17.7917V10.5H8.40065C4.66732 10.5 2.33398 12.8333 2.33398 16.5667V19.5883C2.33398 23.3333 4.66732 25.6667 8.40065 25.6667H19.589C23.3223 25.6667 25.6556 23.3333 25.6556 19.6V16.5667C25.6673 12.8333 23.334 10.5 19.6006 10.5Z" fill="#0ECAD5"/>
<path d="M14.8742 5.31969L17.2892 7.73469C17.4642 7.90969 17.6858 7.99135 17.9075 7.99135C18.1292 7.99135 18.3508 7.90969 18.5258 7.73469C18.8642 7.39635 18.8642 6.83635 18.5258 6.49802L14.6175 2.58969C14.2792 2.25135 13.7192 2.25135 13.3808 2.58969L9.4725 6.49802C9.13417 6.83635 9.13417 7.39635 9.4725 7.73469C9.81083 8.07302 10.3708 8.07302 10.7092 7.73469L13.1242 5.31969V10.4997H14.8742V5.31969Z" fill="#0ECAD5"/>
</svg>
