<svg width="20" height="20" viewBox="0 0 20 20" fill="none" xmlns="http://www.w3.org/2000/svg">
<path d="M5 8.33464V6.66797C5 3.90964 5.83333 1.66797 10 1.66797C14.1667 1.66797 15 3.90964 15 6.66797V8.33464" stroke="#52616B" stroke-width="1.5" stroke-linecap="round" stroke-linejoin="round"/>
<path d="M10.0003 15.4167C11.1509 15.4167 12.0837 14.4839 12.0837 13.3333C12.0837 12.1827 11.1509 11.25 10.0003 11.25C8.84973 11.25 7.91699 12.1827 7.91699 13.3333C7.91699 14.4839 8.84973 15.4167 10.0003 15.4167Z" stroke="#52616B" stroke-width="1.5" stroke-linecap="round" stroke-linejoin="round"/>
<path d="M14.167 18.332H5.83366C2.50033 18.332 1.66699 17.4987 1.66699 14.1654V12.4987C1.66699 9.16536 2.50033 8.33203 5.83366 8.33203H14.167C17.5003 8.33203 18.3337 9.16536 18.3337 12.4987V14.1654C18.3337 17.4987 17.5003 18.332 14.167 18.332Z" stroke="#52616B" stroke-width="1.5" stroke-linecap="round" stroke-linejoin="round"/>
</svg>
