<svg width="16" height="16" viewBox="0 0 16 16" fill="none" xmlns="http://www.w3.org/2000/svg">
<path d="M14.4798 4.18716V4.96716C14.4798 5.62049 14.2198 6.1805 13.7598 6.50716C13.4732 6.7205 13.1198 6.82049 12.7531 6.82049C12.5265 6.82049 12.2998 6.78716 12.0665 6.70716L8.47982 5.51383V12.0005C8.47982 13.7472 7.05982 15.1672 5.31315 15.1672C3.56648 15.1672 2.14648 13.7472 2.14648 12.0005C2.14648 10.2538 3.56648 8.83383 5.31315 8.83383C6.15315 8.83383 6.91315 9.16716 7.47982 9.70049V2.66716C7.47982 2.0205 7.74648 1.4605 8.20648 1.12716C8.66648 0.800495 9.27982 0.727162 9.89315 0.927162L12.8398 1.91383C13.7465 2.21383 14.4798 3.23383 14.4798 4.18716Z" fill="#A1ABB3"/>
</svg>
