<svg width="170" height="32" viewBox="0 0 170 32" fill="none" xmlns="http://www.w3.org/2000/svg">
<path fill-rule="evenodd" clip-rule="evenodd" d="M60 31C60 31.5523 60.4477 32 61 32C61.5523 32 62 31.5523 62 31V1C62 0.447715 61.5523 0 61 0C60.4477 0 60 0.447715 60 1V31ZM57 32C56.4477 32 56 31.5523 56 31V3C56 2.44772 56.4477 2 57 2C57.5523 2 58 2.44772 58 3V31C58 31.5523 57.5523 32 57 32ZM20 31C20 31.5523 20.4477 32 21 32C21.5523 32 22 31.5523 22 31V9C22 8.44772 21.5523 8 21 8C20.4477 8 20 8.44772 20 9V31ZM17 32C16.4477 32 16 31.5523 16 31V13C16 12.4477 16.4477 12 17 12C17.5523 12 18 12.4477 18 13V31C18 31.5523 17.5523 32 17 32ZM12 31C12 31.5523 12.4477 32 13 32C13.5523 32 14 31.5523 14 31V19C14 18.4477 13.5523 18 13 18C12.4477 18 12 18.4477 12 19V31ZM9 32C8.44771 32 8 31.5523 8 31V26C8 25.4477 8.44771 25 9 25C9.55229 25 10 25.4477 10 26V31C10 31.5523 9.55229 32 9 32ZM4 31C4 31.5523 4.44772 32 5 32C5.55228 32 6 31.5523 6 31V28C6 27.4477 5.55228 27 5 27C4.44772 27 4 27.4477 4 28V31ZM0 31C0 31.5523 0.447715 32 1 32C1.55228 32 2 31.5523 2 31V29C2 28.4477 1.55228 28 1 28C0.447715 28 0 28.4477 0 29V31ZM25 32C25.5523 32 26 31.5523 26 31V13C26 12.4477 25.5523 12 25 12C24.4477 12 24 12.4477 24 13V31C24 31.5523 24.4477 32 25 32ZM30 31C30 31.5523 29.5523 32 29 32C28.4477 32 28 31.5523 28 31V19C28 18.4477 28.4477 18 29 18C29.5523 18 30 18.4477 30 19V31ZM33 32C33.5523 32 34 31.5523 34 31V26C34 25.4477 33.5523 25 33 25C32.4477 25 32 25.4477 32 26V31C32 31.5523 32.4477 32 33 32ZM38 31C38 31.5523 37.5523 32 37 32C36.4477 32 36 31.5523 36 31V28C36 27.4477 36.4477 27 37 27C37.5523 27 38 27.4477 38 28V31ZM41 32C41.5523 32 42 31.5523 42 31V29C42 28.4477 41.5523 28 41 28C40.4477 28 40 28.4477 40 29V31C40 31.5523 40.4477 32 41 32ZM44 31C44 31.5523 44.4477 32 45 32C45.5523 32 46 31.5523 46 31V19C46 18.4477 45.5523 18 45 18C44.4477 18 44 18.4477 44 19V31ZM49 32C48.4477 32 48 31.5523 48 31V16C48 15.4477 48.4477 15 49 15C49.5523 15 50 15.4477 50 16V31C50 31.5523 49.5523 32 49 32ZM52 31C52 31.5523 52.4477 32 53 32C53.5523 32 54 31.5523 54 31V10C54 9.44771 53.5523 9 53 9C52.4477 9 52 9.44772 52 10V31ZM65 32C64.4477 32 64 31.5523 64 31V3C64 2.44772 64.4477 2 65 2C65.5523 2 66 2.44772 66 3V31C66 31.5523 65.5523 32 65 32ZM68 31C68 31.5523 68.4477 32 69 32C69.5523 32 70 31.5523 70 31V21C70 20.4477 69.5523 20 69 20C68.4477 20 68 20.4477 68 21V31ZM73 32C72.4477 32 72 31.5523 72 31V17C72 16.4477 72.4477 16 73 16C73.5523 16 74 16.4477 74 17V31C74 31.5523 73.5523 32 73 32ZM76 31C76 31.5523 76.4477 32 77 32C77.5523 32 78 31.5523 78 31V22C78 21.4477 77.5523 21 77 21C76.4477 21 76 21.4477 76 22V31ZM81 32C80.4477 32 80 31.5523 80 31V26C80 25.4477 80.4477 25 81 25C81.5523 25 82 25.4477 82 26V31C82 31.5523 81.5523 32 81 32ZM84 31C84 31.5523 84.4477 32 85 32C85.5523 32 86 31.5523 86 31V26C86 25.4477 85.5523 25 85 25C84.4477 25 84 25.4477 84 26V31ZM89 32C88.4477 32 88 31.5523 88 31V16C88 15.4477 88.4477 15 89 15C89.5523 15 90 15.4477 90 16V31C90 31.5523 89.5523 32 89 32ZM92 31C92 31.5523 92.4477 32 93 32C93.5523 32 94 31.5523 94 31V10C94 9.44771 93.5523 9 93 9C92.4477 9 92 9.44772 92 10V31ZM97 32C96.4477 32 96 31.5523 96 31V13C96 12.4477 96.4477 12 97 12C97.5523 12 98 12.4477 98 13V31C98 31.5523 97.5523 32 97 32ZM100 31C100 31.5523 100.448 32 101 32C101.552 32 102 31.5523 102 31V18C102 17.4477 101.552 17 101 17C100.448 17 100 17.4477 100 18V31ZM105 32C104.448 32 104 31.5523 104 31V18C104 17.4477 104.448 17 105 17C105.552 17 106 17.4477 106 18V31C106 31.5523 105.552 32 105 32ZM108 31C108 31.5523 108.448 32 109 32C109.552 32 110 31.5523 110 31V18C110 17.4477 109.552 17 109 17C108.448 17 108 17.4477 108 18V31ZM113 32C112.448 32 112 31.5523 112 31V24C112 23.4477 112.448 23 113 23C113.552 23 114 23.4477 114 24V31C114 31.5523 113.552 32 113 32ZM116 31C116 31.5523 116.448 32 117 32C117.552 32 118 31.5523 118 31V23C118 22.4477 117.552 22 117 22C116.448 22 116 22.4477 116 23V31ZM121 32C120.448 32 120 31.5523 120 31V19C120 18.4477 120.448 18 121 18C121.552 18 122 18.4477 122 19V31C122 31.5523 121.552 32 121 32ZM124 31C124 31.5523 124.448 32 125 32C125.552 32 126 31.5523 126 31V15C126 14.4477 125.552 14 125 14C124.448 14 124 14.4477 124 15V31ZM129 32C128.448 32 128 31.5523 128 31V19C128 18.4477 128.448 18 129 18C129.552 18 130 18.4477 130 19V31C130 31.5523 129.552 32 129 32ZM132 31C132 31.5523 132.448 32 133 32C133.552 32 134 31.5523 134 31V23C134 22.4477 133.552 22 133 22C132.448 22 132 22.4477 132 23V31ZM137 32C136.448 32 136 31.5523 136 31V26C136 25.4477 136.448 25 137 25C137.552 25 138 25.4477 138 26V31C138 31.5523 137.552 32 137 32ZM140 31C140 31.5523 140.448 32 141 32C141.552 32 142 31.5523 142 31V28C142 27.4477 141.552 27 141 27C140.448 27 140 27.4477 140 28V31ZM145 32C144.448 32 144 31.5523 144 31V28C144 27.4477 144.448 27 145 27C145.552 27 146 27.4477 146 28V31C146 31.5523 145.552 32 145 32ZM148 31C148 31.5523 148.448 32 149 32C149.552 32 150 31.5523 150 31V23C150 22.4477 149.552 22 149 22C148.448 22 148 22.4477 148 23V31ZM153 32C152.448 32 152 31.5523 152 31V19C152 18.4477 152.448 18 153 18C153.552 18 154 18.4477 154 19V31C154 31.5523 153.552 32 153 32ZM156 31C156 31.5523 156.448 32 157 32C157.552 32 158 31.5523 158 31V16C158 15.4477 157.552 15 157 15C156.448 15 156 15.4477 156 16V31ZM161 32C160.448 32 160 31.5523 160 31V13C160 12.4477 160.448 12 161 12C161.552 12 162 12.4477 162 13V31C162 31.5523 161.552 32 161 32ZM164 31C164 31.5523 164.448 32 165 32C165.552 32 166 31.5523 166 31V9C166 8.44772 165.552 8 165 8C164.448 8 164 8.44772 164 9V31ZM169 32C168.448 32 168 31.5523 168 31V5C168 4.44772 168.448 4 169 4C169.552 4 170 4.44771 170 5V31C170 31.5523 169.552 32 169 32Z" fill="#1A75FF"/>
<path fill-rule="evenodd" clip-rule="evenodd" d="M60 31C60 31.5523 60.4477 32 61 32C61.5523 32 62 31.5523 62 31V1C62 0.447715 61.5523 0 61 0C60.4477 0 60 0.447715 60 1V31ZM57 32C56.4477 32 56 31.5523 56 31V3C56 2.44772 56.4477 2 57 2C57.5523 2 58 2.44772 58 3V31C58 31.5523 57.5523 32 57 32ZM20 31C20 31.5523 20.4477 32 21 32C21.5523 32 22 31.5523 22 31V9C22 8.44772 21.5523 8 21 8C20.4477 8 20 8.44772 20 9V31ZM17 32C16.4477 32 16 31.5523 16 31V13C16 12.4477 16.4477 12 17 12C17.5523 12 18 12.4477 18 13V31C18 31.5523 17.5523 32 17 32ZM12 31C12 31.5523 12.4477 32 13 32C13.5523 32 14 31.5523 14 31V19C14 18.4477 13.5523 18 13 18C12.4477 18 12 18.4477 12 19V31ZM9 32C8.44771 32 8 31.5523 8 31V26C8 25.4477 8.44771 25 9 25C9.55229 25 10 25.4477 10 26V31C10 31.5523 9.55229 32 9 32ZM4 31C4 31.5523 4.44772 32 5 32C5.55228 32 6 31.5523 6 31V28C6 27.4477 5.55228 27 5 27C4.44772 27 4 27.4477 4 28V31ZM0 31C0 31.5523 0.447715 32 1 32C1.55228 32 2 31.5523 2 31V29C2 28.4477 1.55228 28 1 28C0.447715 28 0 28.4477 0 29V31ZM25 32C25.5523 32 26 31.5523 26 31V13C26 12.4477 25.5523 12 25 12C24.4477 12 24 12.4477 24 13V31C24 31.5523 24.4477 32 25 32ZM30 31C30 31.5523 29.5523 32 29 32C28.4477 32 28 31.5523 28 31V19C28 18.4477 28.4477 18 29 18C29.5523 18 30 18.4477 30 19V31ZM33 32C33.5523 32 34 31.5523 34 31V26C34 25.4477 33.5523 25 33 25C32.4477 25 32 25.4477 32 26V31C32 31.5523 32.4477 32 33 32ZM38 31C38 31.5523 37.5523 32 37 32C36.4477 32 36 31.5523 36 31V28C36 27.4477 36.4477 27 37 27C37.5523 27 38 27.4477 38 28V31ZM41 32C41.5523 32 42 31.5523 42 31V29C42 28.4477 41.5523 28 41 28C40.4477 28 40 28.4477 40 29V31C40 31.5523 40.4477 32 41 32ZM44 31C44 31.5523 44.4477 32 45 32C45.5523 32 46 31.5523 46 31V19C46 18.4477 45.5523 18 45 18C44.4477 18 44 18.4477 44 19V31ZM49 32C48.4477 32 48 31.5523 48 31V16C48 15.4477 48.4477 15 49 15C49.5523 15 50 15.4477 50 16V31C50 31.5523 49.5523 32 49 32ZM52 31C52 31.5523 52.4477 32 53 32C53.5523 32 54 31.5523 54 31V10C54 9.44771 53.5523 9 53 9C52.4477 9 52 9.44772 52 10V31ZM65 32C64.4477 32 64 31.5523 64 31V3C64 2.44772 64.4477 2 65 2C65.5523 2 66 2.44772 66 3V31C66 31.5523 65.5523 32 65 32ZM68 31C68 31.5523 68.4477 32 69 32C69.5523 32 70 31.5523 70 31V21C70 20.4477 69.5523 20 69 20C68.4477 20 68 20.4477 68 21V31ZM73 32C72.4477 32 72 31.5523 72 31V17C72 16.4477 72.4477 16 73 16C73.5523 16 74 16.4477 74 17V31C74 31.5523 73.5523 32 73 32ZM76 31C76 31.5523 76.4477 32 77 32C77.5523 32 78 31.5523 78 31V22C78 21.4477 77.5523 21 77 21C76.4477 21 76 21.4477 76 22V31ZM81 32C80.4477 32 80 31.5523 80 31V26C80 25.4477 80.4477 25 81 25C81.5523 25 82 25.4477 82 26V31C82 31.5523 81.5523 32 81 32ZM84 31C84 31.5523 84.4477 32 85 32C85.5523 32 86 31.5523 86 31V26C86 25.4477 85.5523 25 85 25C84.4477 25 84 25.4477 84 26V31ZM89 32C88.4477 32 88 31.5523 88 31V16C88 15.4477 88.4477 15 89 15C89.5523 15 90 15.4477 90 16V31C90 31.5523 89.5523 32 89 32ZM92 31C92 31.5523 92.4477 32 93 32C93.5523 32 94 31.5523 94 31V10C94 9.44771 93.5523 9 93 9C92.4477 9 92 9.44772 92 10V31ZM97 32C96.4477 32 96 31.5523 96 31V13C96 12.4477 96.4477 12 97 12C97.5523 12 98 12.4477 98 13V31C98 31.5523 97.5523 32 97 32ZM100 31C100 31.5523 100.448 32 101 32C101.552 32 102 31.5523 102 31V18C102 17.4477 101.552 17 101 17C100.448 17 100 17.4477 100 18V31ZM105 32C104.448 32 104 31.5523 104 31V18C104 17.4477 104.448 17 105 17C105.552 17 106 17.4477 106 18V31C106 31.5523 105.552 32 105 32ZM108 31C108 31.5523 108.448 32 109 32C109.552 32 110 31.5523 110 31V18C110 17.4477 109.552 17 109 17C108.448 17 108 17.4477 108 18V31ZM113 32C112.448 32 112 31.5523 112 31V24C112 23.4477 112.448 23 113 23C113.552 23 114 23.4477 114 24V31C114 31.5523 113.552 32 113 32ZM116 31C116 31.5523 116.448 32 117 32C117.552 32 118 31.5523 118 31V23C118 22.4477 117.552 22 117 22C116.448 22 116 22.4477 116 23V31ZM121 32C120.448 32 120 31.5523 120 31V19C120 18.4477 120.448 18 121 18C121.552 18 122 18.4477 122 19V31C122 31.5523 121.552 32 121 32ZM124 31C124 31.5523 124.448 32 125 32C125.552 32 126 31.5523 126 31V15C126 14.4477 125.552 14 125 14C124.448 14 124 14.4477 124 15V31ZM129 32C128.448 32 128 31.5523 128 31V19C128 18.4477 128.448 18 129 18C129.552 18 130 18.4477 130 19V31C130 31.5523 129.552 32 129 32ZM132 31C132 31.5523 132.448 32 133 32C133.552 32 134 31.5523 134 31V23C134 22.4477 133.552 22 133 22C132.448 22 132 22.4477 132 23V31ZM137 32C136.448 32 136 31.5523 136 31V26C136 25.4477 136.448 25 137 25C137.552 25 138 25.4477 138 26V31C138 31.5523 137.552 32 137 32ZM140 31C140 31.5523 140.448 32 141 32C141.552 32 142 31.5523 142 31V28C142 27.4477 141.552 27 141 27C140.448 27 140 27.4477 140 28V31ZM145 32C144.448 32 144 31.5523 144 31V28C144 27.4477 144.448 27 145 27C145.552 27 146 27.4477 146 28V31C146 31.5523 145.552 32 145 32ZM148 31C148 31.5523 148.448 32 149 32C149.552 32 150 31.5523 150 31V23C150 22.4477 149.552 22 149 22C148.448 22 148 22.4477 148 23V31ZM153 32C152.448 32 152 31.5523 152 31V19C152 18.4477 152.448 18 153 18C153.552 18 154 18.4477 154 19V31C154 31.5523 153.552 32 153 32ZM156 31C156 31.5523 156.448 32 157 32C157.552 32 158 31.5523 158 31V16C158 15.4477 157.552 15 157 15C156.448 15 156 15.4477 156 16V31ZM161 32C160.448 32 160 31.5523 160 31V13C160 12.4477 160.448 12 161 12C161.552 12 162 12.4477 162 13V31C162 31.5523 161.552 32 161 32ZM164 31C164 31.5523 164.448 32 165 32C165.552 32 166 31.5523 166 31V9C166 8.44772 165.552 8 165 8C164.448 8 164 8.44772 164 9V31ZM169 32C168.448 32 168 31.5523 168 31V5C168 4.44772 168.448 4 169 4C169.552 4 170 4.44771 170 5V31C170 31.5523 169.552 32 169 32Z" fill="white"/>
</svg>
