<svg width="25" height="24" viewBox="0 0 25 24" fill="none" xmlns="http://www.w3.org/2000/svg">
<path d="M22.25 12C22.25 13.31 22 14.57 21.53 15.72C20.88 15.27 20.09 15 19.25 15C18.31 15 17.44 15.33 16.75 15.88C15.83 16.61 15.25 17.74 15.25 19C15.25 19.75 15.46 20.46 15.83 21.06C15.87 21.13 15.92 21.2 15.98 21.27C14.83 21.74 13.57 22 12.25 22C6.73 22 2.25 17.52 2.25 12C2.25 6.48 6.73 2 12.25 2C17.77 2 22.25 6.48 22.25 12Z" stroke="#52616B" stroke-width="1.5" stroke-linecap="round" stroke-linejoin="round"/>
<path d="M9.63086 11.9996V10.6096C9.63086 8.88959 10.8509 8.17958 12.3409 9.03958L13.5409 9.72958L14.7408 10.4196C16.2308 11.2796 16.2308 12.6896 14.7408 13.5496L13.5409 14.2396L12.3409 14.9296C10.8509 15.7896 9.63086 15.0896 9.63086 13.3596V11.9996Z" stroke="#52616B" stroke-width="1.5" stroke-miterlimit="10" stroke-linecap="round" stroke-linejoin="round"/>
<path d="M23.25 19C23.25 19.75 23.04 20.46 22.67 21.06C22.46 21.42 22.19 21.74 21.88 22C21.18 22.63 20.26 23 19.25 23C17.79 23 16.52 22.22 15.83 21.06C15.46 20.46 15.25 19.75 15.25 19C15.25 17.74 15.83 16.61 16.75 15.88C17.44 15.33 18.31 15 19.25 15C21.46 15 23.25 16.79 23.25 19Z" stroke="#52616B" stroke-width="1.5" stroke-miterlimit="10" stroke-linecap="round" stroke-linejoin="round"/>
<path d="M20.7397 18.9795H17.7598" stroke="#52616B" stroke-width="1.5" stroke-miterlimit="10" stroke-linecap="round" stroke-linejoin="round"/>
<path d="M19.25 17.5195V20.5095" stroke="#52616B" stroke-width="1.5" stroke-miterlimit="10" stroke-linecap="round" stroke-linejoin="round"/>
</svg>
