<svg width="28" height="28" viewBox="0 0 28 28" fill="none" xmlns="http://www.w3.org/2000/svg">
<path d="M14.0007 2.33301C10.944 2.33301 8.45898 4.81801 8.45898 7.87467C8.45898 10.873 10.804 13.2997 13.8607 13.4047C13.954 13.393 14.0473 13.393 14.1173 13.4047C14.1407 13.4047 14.1523 13.4047 14.1757 13.4047C14.1873 13.4047 14.1873 13.4047 14.199 13.4047C17.1857 13.2997 19.5307 10.873 19.5423 7.87467C19.5423 4.81801 17.0573 2.33301 14.0007 2.33301Z" fill="#0ABFAC"/>
<path d="M19.9271 16.5084C16.6721 14.3384 11.3638 14.3384 8.08544 16.5084C6.60378 17.5 5.78711 18.8417 5.78711 20.2767C5.78711 21.7117 6.60378 23.0417 8.07378 24.0217C9.70711 25.1184 11.8538 25.6667 14.0004 25.6667C16.1471 25.6667 18.2938 25.1184 19.9271 24.0217C21.3971 23.03 22.2138 21.7 22.2138 20.2534C22.2021 18.8184 21.3971 17.4884 19.9271 16.5084Z" fill="#0ABFAC"/>
</svg>
