<svg width="25" height="24" viewBox="0 0 25 24" fill="none" xmlns="http://www.w3.org/2000/svg">
<path d="M21.75 5.98047C18.42 5.65047 15.07 5.48047 11.73 5.48047C9.75 5.48047 7.77 5.58047 5.79 5.78047L3.75 5.98047" stroke="#52616B" stroke-width="1.5" stroke-linecap="round" stroke-linejoin="round"/>
<path d="M9.25 4.97L9.47 3.66C9.63 2.71 9.75 2 11.44 2H14.06C15.75 2 15.88 2.75 16.03 3.67L16.25 4.97" stroke="#52616B" stroke-width="1.5" stroke-linecap="round" stroke-linejoin="round"/>
<path d="M19.6004 9.13965L18.9504 19.2096C18.8404 20.7796 18.7504 21.9996 15.9604 21.9996H9.54039C6.75039 21.9996 6.66039 20.7796 6.55039 19.2096L5.90039 9.13965" stroke="#52616B" stroke-width="1.5" stroke-linecap="round" stroke-linejoin="round"/>
<path d="M11.0801 16.5H14.4101" stroke="#52616B" stroke-width="1.5" stroke-linecap="round" stroke-linejoin="round"/>
<path d="M10.25 12.5H15.25" stroke="#52616B" stroke-width="1.5" stroke-linecap="round" stroke-linejoin="round"/>
</svg>
