<svg width="49" height="48" viewBox="0 0 49 48" fill="none" xmlns="http://www.w3.org/2000/svg">
<g clip-path="url(#clip0_2008_225756)">
<path d="M42.8523 29.5088C43.0945 19.4625 37.0042 13.7854 36.7433 13.5473C36.343 13.1822 35.7687 13.0792 35.2666 13.283C34.7647 13.4868 34.4242 13.9608 34.3917 14.5016C34.3886 14.5525 34.0943 18.7574 30.9951 21.2903C31.2914 18.1878 31.0807 15.3131 30.3641 12.7146C29.5949 9.92556 28.245 7.4471 26.3522 5.34794C23.4917 2.17581 20.1876 0.70722 18.4726 0.114158C18.4726 0.114158 18.1418 0.00897046 17.9782 0.00156421C17.4384 -0.0239358 16.9325 0.264064 16.6762 0.73947C16.4927 1.08006 16.4581 1.48028 16.5782 1.84581C16.6852 2.3126 18.039 8.73869 14.0741 13.266C10.1632 17.2384 5.8484 23.6313 6.15619 29.6492C6.15609 39.7678 14.3886 47.9999 24.5076 47.9999C34.6266 47.9999 42.8591 39.7678 42.8591 29.649C42.8591 29.6016 42.8568 29.5548 42.8523 29.5088Z" fill="url(#paint0_linear_2008_225756)"/>
<path d="M19.8203 38.0645V28.6895C19.8203 27.6173 20.9722 26.9395 21.9095 27.4603L30.347 32.1478C31.3114 32.6835 31.3114 34.0706 30.347 34.6064L21.9095 39.2939C20.9722 39.8145 19.8203 39.1368 19.8203 38.0645Z" fill="url(#paint1_linear_2008_225756)"/>
</g>
<defs>
<linearGradient id="paint0_linear_2008_225756" x1="24.4999" y1="47.9999" x2="24.4999" y2="-0.000123024" gradientUnits="userSpaceOnUse">
<stop stop-color="#FD5900"/>
<stop offset="1" stop-color="#FFDE00"/>
</linearGradient>
<linearGradient id="paint1_linear_2008_225756" x1="25.4453" y1="39.4728" x2="25.4453" y2="27.2812" gradientUnits="userSpaceOnUse">
<stop stop-color="#FFEDAD"/>
<stop offset="1" stop-color="#FFFFE5"/>
</linearGradient>
<clipPath id="clip0_2008_225756">
<rect width="48" height="48" fill="white" transform="translate(0.5)"/>
</clipPath>
</defs>
</svg>
