<svg width="16" height="16" viewBox="0 0 16 16" fill="none" xmlns="http://www.w3.org/2000/svg">
<path d="M14.6673 10.0007V6.00065C14.6673 2.66732 13.334 1.33398 10.0007 1.33398H6.00065C2.66732 1.33398 1.33398 2.66732 1.33398 6.00065V10.0007C1.33398 13.334 2.66732 14.6673 6.00065 14.6673H10.0007C13.334 14.6673 14.6673 13.334 14.6673 10.0007Z" stroke="white" stroke-linecap="round" stroke-linejoin="round"/>
<path d="M1.67969 4.74023H14.3197" stroke="white" stroke-linecap="round" stroke-linejoin="round"/>
<path d="M5.67969 1.40625V4.64625" stroke="white" stroke-linecap="round" stroke-linejoin="round"/>
<path d="M10.3203 1.40625V4.34625" stroke="white" stroke-linecap="round" stroke-linejoin="round"/>
<path d="M6.5 9.63406V8.83406C6.5 7.80739 7.22667 7.38739 8.11333 7.90073L8.80667 8.30073L9.5 8.70073C10.3867 9.21406 10.3867 10.0541 9.5 10.5674L8.80667 10.9674L8.11333 11.3674C7.22667 11.8807 6.5 11.4607 6.5 10.4341V9.63406V9.63406Z" stroke="white" stroke-miterlimit="10" stroke-linecap="round" stroke-linejoin="round"/>
</svg>
