<svg width="25" height="24" viewBox="0 0 25 24" fill="none" xmlns="http://www.w3.org/2000/svg">
<path d="M22.875 15V9C22.875 4 20.875 2 15.875 2H9.875C4.875 2 2.875 4 2.875 9V15C2.875 20 4.875 22 9.875 22H15.875C20.875 22 22.875 20 22.875 15Z" stroke="white" stroke-width="1.5" stroke-linecap="round" stroke-linejoin="round"/>
<path d="M3.39453 7.11035H22.3545" stroke="white" stroke-width="1.5" stroke-linecap="round" stroke-linejoin="round"/>
<path d="M9.39453 2.11035V6.97035" stroke="white" stroke-width="1.5" stroke-linecap="round" stroke-linejoin="round"/>
<path d="M16.3555 2.11035V6.52035" stroke="white" stroke-width="1.5" stroke-linecap="round" stroke-linejoin="round"/>
<path d="M10.625 14.4501V13.2501C10.625 11.7101 11.715 11.0801 13.045 11.8501L14.085 12.4501L15.125 13.0501C16.455 13.8201 16.455 15.0801 15.125 15.8501L14.085 16.4501L13.045 17.0501C11.715 17.8201 10.625 17.1901 10.625 15.6501V14.4501V14.4501Z" stroke="white" stroke-width="1.5" stroke-miterlimit="10" stroke-linecap="round" stroke-linejoin="round"/>
</svg>
