<svg width="28" height="28" viewBox="0 0 28 28" fill="none" xmlns="http://www.w3.org/2000/svg">
<path d="M20.9998 8.3535C20.9298 8.34183 20.8481 8.34183 20.7781 8.3535C19.1681 8.29517 17.8848 6.97683 17.8848 5.3435C17.8848 3.67516 19.2264 2.3335 20.8948 2.3335C22.5631 2.3335 23.9048 3.68683 23.9048 5.3435C23.8931 6.97683 22.6098 8.29517 20.9998 8.3535Z" stroke="#52616B" stroke-width="2" stroke-linecap="round" stroke-linejoin="round"/>
<path d="M19.7987 16.847C21.397 17.1154 23.1587 16.8353 24.3953 16.007C26.0403 14.9103 26.0403 13.1137 24.3953 12.017C23.147 11.1887 21.362 10.9087 19.7637 11.1887" stroke="#52616B" stroke-width="2" stroke-linecap="round" stroke-linejoin="round"/>
<path d="M6.96555 8.3535C7.03555 8.34183 7.11721 8.34183 7.18721 8.3535C8.79721 8.29517 10.0805 6.97683 10.0805 5.3435C10.0805 3.67516 8.73888 2.3335 7.07055 2.3335C5.40222 2.3335 4.06055 3.68683 4.06055 5.3435C4.07221 6.97683 5.35555 8.29517 6.96555 8.3535Z" stroke="#52616B" stroke-width="2" stroke-linecap="round" stroke-linejoin="round"/>
<path d="M8.16635 16.847C6.56802 17.1154 4.80635 16.8353 3.56969 16.007C1.92469 14.9103 1.92469 13.1137 3.56969 12.017C4.81802 11.1887 6.60302 10.9087 8.20135 11.1887" stroke="#52616B" stroke-width="2" stroke-linecap="round" stroke-linejoin="round"/>
<path d="M13.9998 17.0683C13.9298 17.0567 13.8481 17.0567 13.7781 17.0683C12.1681 17.01 10.8848 15.6917 10.8848 14.0583C10.8848 12.39 12.2264 11.0483 13.8948 11.0483C15.5631 11.0483 16.9048 12.4017 16.9048 14.0583C16.8931 15.6917 15.6098 17.0217 13.9998 17.0683Z" stroke="#52616B" stroke-width="2" stroke-linecap="round" stroke-linejoin="round"/>
<path d="M10.6048 20.7434C8.95984 21.8401 8.95984 23.6367 10.6048 24.7334C12.4715 25.9817 15.5282 25.9817 17.3948 24.7334C19.0398 23.6367 19.0398 21.8401 17.3948 20.7434C15.5398 19.5068 12.4715 19.5068 10.6048 20.7434Z" stroke="#52616B" stroke-width="2" stroke-linecap="round" stroke-linejoin="round"/>
</svg>
