<svg width="16" height="16" viewBox="0 0 16 16" fill="none" xmlns="http://www.w3.org/2000/svg">
<path d="M14.6666 14.667H1.33331C1.05998 14.667 0.833313 14.4403 0.833313 14.167C0.833313 13.8937 1.05998 13.667 1.33331 13.667H14.6666C14.94 13.667 15.1666 13.8937 15.1666 14.167C15.1666 14.4403 14.94 14.667 14.6666 14.667Z" fill="#52616B"/>
<path d="M6.5 2.66634V14.6663H9.5V2.66634C9.5 1.93301 9.2 1.33301 8.3 1.33301H7.7C6.8 1.33301 6.5 1.93301 6.5 2.66634Z" fill="#52616B"/>
<path d="M2 6.66634V14.6663H4.66667V6.66634C4.66667 5.93301 4.4 5.33301 3.6 5.33301H3.06667C2.26667 5.33301 2 5.93301 2 6.66634Z" fill="#52616B"/>
<path d="M11.3333 10.0003V14.667H14V10.0003C14 9.26699 13.7333 8.66699 12.9333 8.66699H12.4C11.6 8.66699 11.3333 9.26699 11.3333 10.0003Z" fill="#52616B"/>
</svg>
