<svg width="24" height="24" viewBox="0 0 24 24" fill="none" xmlns="http://www.w3.org/2000/svg">
<path d="M10.75 9.5V15.25C10.75 15.9361 11.3139 16.5 12 16.5C12.6861 16.5 13.25 15.9361 13.25 15.25V9.5H16.8C18.2946 9.5 19.4577 9.96497 20.245 10.7533C21.0321 11.5415 21.4947 12.7043 21.49 14.1984V14.2V16.8C21.49 18.2946 21.0251 19.4578 20.2364 20.2464C19.4478 21.0351 18.2846 21.5 16.79 21.5H7.2C5.70546 21.5 4.54235 21.0351 3.7538 20.2454C2.96518 19.4557 2.5 18.29 2.5 16.79V14.2C2.5 12.7054 2.96492 11.5422 3.75355 10.7536C4.54218 9.96492 5.70545 9.5 7.2 9.5H10.75Z" fill="#0ABFAC" stroke="#0ABFAC"/>
<path d="M13.1034 4.20785L12.2498 3.3543V4.56141V8.50141H11.7498V4.56141V3.3543L10.8963 4.20785L8.82629 6.27785C8.73155 6.37259 8.56813 6.37259 8.4734 6.27785C8.37866 6.18312 8.37866 6.0197 8.4734 5.92496L11.8234 2.57496C11.9181 2.48022 12.0816 2.48022 12.1763 2.57496L15.5263 5.92496C15.621 6.0197 15.621 6.18312 15.5263 6.27785C15.475 6.32914 15.4144 6.35141 15.3498 6.35141C15.2853 6.35141 15.2247 6.32914 15.1734 6.27785L13.1034 4.20785Z" fill="#0ABFAC" stroke="#0ABFAC"/>
</svg>
