<svg width="16" height="16" viewBox="0 0 16 16" fill="none" xmlns="http://www.w3.org/2000/svg">
<path d="M8.00065 14.6673C11.6825 14.6673 14.6673 11.6825 14.6673 8.00065C14.6673 4.31875 11.6825 1.33398 8.00065 1.33398C4.31875 1.33398 1.33398 4.31875 1.33398 8.00065C1.33398 11.6825 4.31875 14.6673 8.00065 14.6673Z" stroke="white" stroke-width="1.5" stroke-linecap="round" stroke-linejoin="round"/>
<path d="M5.33372 2H6.00039C4.70039 5.89333 4.70039 10.1067 6.00039 14H5.33372" stroke="white" stroke-width="1.5" stroke-linecap="round" stroke-linejoin="round"/>
<path d="M10 2C11.3 5.89333 11.3 10.1067 10 14" stroke="white" stroke-width="1.5" stroke-linecap="round" stroke-linejoin="round"/>
<path d="M2 10.6667V10C5.89333 11.3 10.1067 11.3 14 10V10.6667" stroke="white" stroke-width="1.5" stroke-linecap="round" stroke-linejoin="round"/>
<path d="M2 6.00039C5.89333 4.70039 10.1067 4.70039 14 6.00039" stroke="white" stroke-width="1.5" stroke-linecap="round" stroke-linejoin="round"/>
</svg>
