<svg width="32" height="36" viewBox="0 0 32 36" fill="none" xmlns="http://www.w3.org/2000/svg">
<path fill-rule="evenodd" clip-rule="evenodd" d="M30.5721 9.08405L16.0703 0.711437C15.8761 0.599365 15.637 0.599365 15.4429 0.711437L0.941075 9.08405C0.746962 9.19612 0.627383 9.40324 0.627383 9.62738V26.3726C0.627383 26.5968 0.746962 26.8039 0.941075 26.9159L15.4429 35.2886C15.637 35.4006 15.8761 35.4006 16.0703 35.2886L30.5721 26.9159C30.7662 26.8039 30.8857 26.5968 30.8857 26.3726V9.62738C30.8857 9.40324 30.7662 9.19612 30.5721 9.08405ZM16.3839 0.168107C15.9957 -0.0560357 15.5174 -0.0560355 15.1292 0.168107L0.627383 8.54072C0.239157 8.76486 0 9.1791 0 9.62738V26.3726C0 26.8209 0.239157 27.2351 0.627383 27.4593L15.1292 35.8319C15.5174 36.056 15.9957 36.056 16.3839 35.8319L30.8857 27.4593C31.274 27.2351 31.5131 26.8209 31.5131 26.3726V9.62738C31.5131 9.1791 31.274 8.76486 30.8857 8.54072L16.3839 0.168107Z" fill="#0ABFAC"/>
<path d="M4.35179 20.8448H6.5726V21.9315H3V15.0979H4.35179V20.8448Z" fill="#0ABFAC"/>
<path d="M10.5602 22C9.9294 22 9.35006 21.8499 8.82222 21.5497C8.29437 21.2494 7.87596 20.835 7.56698 20.3063C7.258 19.7711 7.10351 19.1674 7.10351 18.4951C7.10351 17.8294 7.258 17.2322 7.56698 16.7035C7.87596 16.1683 8.29437 15.7506 8.82222 15.4503C9.35006 15.1501 9.9294 15 10.5602 15C11.1975 15 11.7769 15.1501 12.2983 15.4503C12.8261 15.7506 13.2413 16.1683 13.5438 16.7035C13.8528 17.2322 14.0073 17.8294 14.0073 18.4951C14.0073 19.1674 13.8528 19.7711 13.5438 20.3063C13.2413 20.835 12.8261 21.2494 12.2983 21.5497C11.7704 21.8499 11.1911 22 10.5602 22ZM10.5602 20.7762C10.9658 20.7762 11.323 20.6848 11.632 20.5021C11.941 20.3128 12.1824 20.0452 12.3562 19.6993C12.53 19.3534 12.6169 18.952 12.6169 18.4951C12.6169 18.0382 12.53 17.6401 12.3562 17.3007C12.1824 16.9548 11.941 16.6904 11.632 16.5077C11.323 16.3249 10.9658 16.2336 10.5602 16.2336C10.1547 16.2336 9.79422 16.3249 9.4788 16.5077C9.16982 16.6904 8.92843 16.9548 8.75463 17.3007C8.58083 17.6401 8.49392 18.0382 8.49392 18.4951C8.49392 18.952 8.58083 19.3534 8.75463 19.6993C8.92843 20.0452 9.16982 20.3128 9.4788 20.5021C9.79422 20.6848 10.1547 20.7762 10.5602 20.7762Z" fill="#0ABFAC"/>
<path d="M19.7057 17.1538C19.5512 16.8667 19.3387 16.648 19.0684 16.4979C18.798 16.3478 18.4826 16.2727 18.1221 16.2727C17.723 16.2727 17.369 16.3641 17.06 16.5469C16.751 16.7296 16.5096 16.9907 16.3358 17.3301C16.162 17.6695 16.0751 18.0611 16.0751 18.5049C16.0751 18.9618 16.162 19.3599 16.3358 19.6993C16.5161 20.0387 16.7639 20.2998 17.0793 20.4825C17.3947 20.6653 17.7617 20.7566 18.1801 20.7566C18.695 20.7566 19.1167 20.6196 19.445 20.3455C19.7733 20.0648 19.9889 19.6765 20.0919 19.1804H17.7745V18.1329H21.4244V19.3273C21.3343 19.8037 21.1411 20.2443 20.845 20.649C20.5489 21.0536 20.1659 21.38 19.696 21.628C19.2325 21.8695 18.7111 21.9902 18.1318 21.9902C17.4816 21.9902 16.8926 21.8434 16.3648 21.5497C15.8434 21.2494 15.4314 20.835 15.1289 20.3063C14.8328 19.7776 14.6847 19.1772 14.6847 18.5049C14.6847 17.8326 14.8328 17.2322 15.1289 16.7035C15.4314 16.1683 15.8434 15.7538 16.3648 15.4601C16.8926 15.1599 17.4784 15.0098 18.1221 15.0098C18.8817 15.0098 19.5415 15.1991 20.1015 15.5776C20.6616 15.9497 21.0478 16.4751 21.2602 17.1538H19.7057Z" fill="#0ABFAC"/>
<path d="M25.5529 22C24.9221 22 24.3427 21.8499 23.8149 21.5497C23.2871 21.2494 22.8687 20.835 22.5597 20.3063C22.2507 19.7711 22.0962 19.1674 22.0962 18.4951C22.0962 17.8294 22.2507 17.2322 22.5597 16.7035C22.8687 16.1683 23.2871 15.7506 23.8149 15.4503C24.3427 15.1501 24.9221 15 25.5529 15C26.1902 15 26.7695 15.1501 27.2909 15.4503C27.8188 15.7506 28.234 16.1683 28.5365 16.7035C28.8455 17.2322 29 17.8294 29 18.4951C29 19.1674 28.8455 19.7711 28.5365 20.3063C28.234 20.835 27.8188 21.2494 27.2909 21.5497C26.7631 21.8499 26.1838 22 25.5529 22ZM25.5529 20.7762C25.9585 20.7762 26.3157 20.6848 26.6247 20.5021C26.9337 20.3128 27.1751 20.0452 27.3489 19.6993C27.5227 19.3534 27.6096 18.952 27.6096 18.4951C27.6096 18.0382 27.5227 17.6401 27.3489 17.3007C27.1751 16.9548 26.9337 16.6904 26.6247 16.5077C26.3157 16.3249 25.9585 16.2336 25.5529 16.2336C25.1474 16.2336 24.7869 16.3249 24.4715 16.5077C24.1625 16.6904 23.9211 16.9548 23.7473 17.3007C23.5735 17.6401 23.4866 18.0382 23.4866 18.4951C23.4866 18.952 23.5735 19.3534 23.7473 19.6993C23.9211 20.0452 24.1625 20.3128 24.4715 20.5021C24.7869 20.6848 25.1474 20.7762 25.5529 20.7762Z" fill="#0ABFAC"/>
</svg>
