<svg width="24" height="25" viewBox="0 0 24 25" fill="none" xmlns="http://www.w3.org/2000/svg">
<path d="M12 2.7832C6.48 2.7832 2 6.93321 2 12.0432C2 14.9432 3.43999 17.5232 5.67999 19.2232V21.0732C5.67999 21.8432 6.49998 22.3232 7.16998 21.9432L9.03003 20.8932C9.97003 21.1632 10.96 21.3032 11.99 21.3032C17.51 21.3032 21.99 17.1532 21.99 12.0432C22 6.93321 17.52 2.7832 12 2.7832ZM15.51 11.2232L13.01 14.2132C12.85 14.4032 12.59 14.4432 12.38 14.3232L11.37 13.7332C11.26 13.6732 11.13 13.6532 11 13.6832L8.98999 14.1732C8.51999 14.2832 8.17999 13.7332 8.48999 13.3632L11.03 10.3432C11.18 10.1632 11.44 10.1132 11.65 10.2232L12.83 10.8432C12.94 10.9032 13.07 10.9132 13.19 10.8832L15.01 10.4132C15.47 10.2932 15.82 10.8532 15.51 11.2232Z" fill="#0ABFAC"/>
</svg>
