<svg width="24" height="24" viewBox="0 0 24 24" fill="none" xmlns="http://www.w3.org/2000/svg">
<path d="M23 11V7.81041C23 5.00001 21 5.00001 21 5.00001C21 5.00001 8.00179 5.00362 5.00089 5.00001C2 4.99639 1 6.40625 1 7.81041V17.1875C1 17.1875 1 20 3.99999 20H10.9" stroke="#52616B" stroke-width="1.5" stroke-linecap="round" stroke-linejoin="round"/>
<path d="M15.2681 22.005C16.0634 22.005 16.7081 21.3603 16.7081 20.565C16.7081 19.7697 16.0634 19.125 15.2681 19.125C14.4728 19.125 13.8281 19.7697 13.8281 20.565C13.8281 21.3603 14.4728 22.005 15.2681 22.005Z" stroke="#52616B" stroke-width="1.5" stroke-linecap="round" stroke-linejoin="round"/>
<path d="M21.9992 19.6032V13.9633C21.9992 12.7633 21.2492 12.5932 20.4792 12.8032L17.5892 13.5933C17.0692 13.7333 16.6992 14.1533 16.6992 14.7533V15.7633V16.4433V20.5733" stroke="#52616B" stroke-width="1.5" stroke-linecap="round" stroke-linejoin="round"/>
<path d="M20.5572 21.0441C21.3525 21.0441 21.9972 20.3994 21.9972 19.6041C21.9972 18.8088 21.3525 18.1641 20.5572 18.1641C19.7619 18.1641 19.1172 18.8088 19.1172 19.6041C19.1172 20.3994 19.7619 21.0441 20.5572 21.0441Z" stroke="#52616B" stroke-width="1.5" stroke-linecap="round" stroke-linejoin="round"/>
<path d="M16.707 16.4322L21.997 14.9922" stroke="#52616B" stroke-width="1.5" stroke-linecap="round" stroke-linejoin="round"/>
</svg>
