<svg width="24" height="24" viewBox="0 0 24 24" fill="none" xmlns="http://www.w3.org/2000/svg">
<rect width="24" height="24" rx="12" fill="#0ABFAC"/>
<path d="M14.6663 5.33301H9.33301C6.66634 5.33301 5.33301 6.66634 5.33301 9.33301V17.9997C5.33301 18.3663 5.63301 18.6663 5.99967 18.6663H14.6663C17.333 18.6663 18.6663 17.333 18.6663 14.6663V9.33301C18.6663 6.66634 17.333 5.33301 14.6663 5.33301ZM13.333 14.1663H8.66634C8.39301 14.1663 8.16634 13.9397 8.16634 13.6663C8.16634 13.393 8.39301 13.1663 8.66634 13.1663H13.333C13.6063 13.1663 13.833 13.393 13.833 13.6663C13.833 13.9397 13.6063 14.1663 13.333 14.1663ZM15.333 10.833H8.66634C8.39301 10.833 8.16634 10.6063 8.16634 10.333C8.16634 10.0597 8.39301 9.83301 8.66634 9.83301H15.333C15.6063 9.83301 15.833 10.0597 15.833 10.333C15.833 10.6063 15.6063 10.833 15.333 10.833Z" fill="white"/>
</svg>
