<svg width="16" height="16" viewBox="0 0 16 16" fill="none" xmlns="http://www.w3.org/2000/svg">
<path d="M13.9266 3.45354V10.9869C13.9266 12.3069 12.8532 13.3802 11.5332 13.3802C10.2199 13.3802 9.13991 12.3069 9.13991 10.9869C9.13991 9.67354 10.2199 8.60021 11.5332 8.60021C12.0932 8.60021 12.5932 8.79354 12.9999 9.11354V5.14688L6.85991 6.89354V12.2735C6.85991 13.5935 5.77991 14.6669 4.46658 14.6669C3.14658 14.6669 2.07324 13.5935 2.07324 12.2735C2.07324 10.9602 3.14658 9.88688 4.46658 9.88688C5.01991 9.88688 5.51991 10.0802 5.92658 10.3935V4.50021C5.92658 3.52021 6.51991 2.76021 7.45991 2.50688L11.3132 1.45354C12.0932 1.24021 12.7532 1.31354 13.2199 1.67354C13.6932 2.02688 13.9266 2.62688 13.9266 3.45354Z" fill="#A1ABB3"/>
</svg>
