<svg width="24" height="24" viewBox="0 0 24 24" fill="none" xmlns="http://www.w3.org/2000/svg">
<path d="M20.8904 5.17995V16.4799C20.8904 18.4599 19.2804 20.0699 17.3004 20.0699C15.3304 20.0699 13.7104 18.4599 13.7104 16.4799C13.7104 14.5099 15.3304 12.8999 17.3004 12.8999C18.1404 12.8999 18.8904 13.1899 19.5004 13.6699V7.71995L10.2904 10.3399V18.4099C10.2904 20.3899 8.67035 21.9999 6.70035 21.9999C4.72035 21.9999 3.11035 20.3899 3.11035 18.4099C3.11035 16.4399 4.72035 14.8299 6.70035 14.8299C7.53035 14.8299 8.28035 15.1199 8.89035 15.5899V6.74995C8.89035 5.27995 9.78035 4.13995 11.1904 3.75995L16.9704 2.17995C18.1404 1.85995 19.1304 1.96995 19.8304 2.50995C20.5403 3.03995 20.8904 3.93995 20.8904 5.17995Z" fill="#0ABFAC"/>
</svg>
