<svg width="24" height="25" viewBox="0 0 24 25" fill="none" xmlns="http://www.w3.org/2000/svg">
<path d="M12.0196 3.69336C8.7096 3.69336 6.0196 6.38336 6.0196 9.69336V12.5834C6.0196 13.1934 5.7596 14.1234 5.4496 14.6434L4.2996 16.5534C3.5896 17.7334 4.0796 19.0434 5.3796 19.4834C9.6896 20.9234 14.3396 20.9234 18.6496 19.4834C19.8596 19.0834 20.3896 17.6534 19.7296 16.5534L18.5796 14.6434C18.2796 14.1234 18.0196 13.1934 18.0196 12.5834V9.69336C18.0196 6.39336 15.3196 3.69336 12.0196 3.69336Z" stroke="#52616B" stroke-width="1.5" stroke-miterlimit="10" stroke-linecap="round"/>
<path d="M13.8699 3.98363C13.5599 3.89363 13.2399 3.82363 12.9099 3.78363C11.9499 3.66363 11.0299 3.73363 10.1699 3.98363C10.4599 3.24363 11.1799 2.72363 12.0199 2.72363C12.8599 2.72363 13.5799 3.24363 13.8699 3.98363Z" stroke="#52616B" stroke-width="1.5" stroke-miterlimit="10" stroke-linecap="round" stroke-linejoin="round"/>
<path d="M15.0195 19.8428C15.0195 21.4928 13.6695 22.8428 12.0195 22.8428C11.1995 22.8428 10.4395 22.5028 9.89953 21.9628C9.35953 21.4228 9.01953 20.6628 9.01953 19.8428" stroke="#52616B" stroke-width="1.5" stroke-miterlimit="10"/>
</svg>
