<svg width="24" height="25" viewBox="0 0 24 25" fill="none" xmlns="http://www.w3.org/2000/svg">
<path d="M19.3399 15.2732L18.3399 13.6132C18.1299 13.2432 17.9399 12.5432 17.9399 12.1332V9.6032C17.9399 7.2532 16.5599 5.2232 14.5699 4.2732C14.0499 3.3532 13.0899 2.7832 11.9899 2.7832C10.8999 2.7832 9.91994 3.3732 9.39994 4.3032C7.44994 5.2732 6.09994 7.2832 6.09994 9.6032V12.1332C6.09994 12.5432 5.90994 13.2432 5.69994 13.6032L4.68994 15.2732C4.28994 15.9432 4.19994 16.6832 4.44994 17.3632C4.68994 18.0332 5.25994 18.5532 5.99994 18.8032C7.93994 19.4632 9.97994 19.7832 12.0199 19.7832C14.0599 19.7832 16.0999 19.4632 18.0399 18.8132C18.7399 18.5832 19.2799 18.0532 19.5399 17.3632C19.7999 16.6732 19.7299 15.9132 19.3399 15.2732Z" fill="#0ABFAC"/>
<path d="M14.8297 20.7932C14.4097 21.9532 13.2997 22.7832 11.9997 22.7832C11.2097 22.7832 10.4297 22.4632 9.87969 21.8932C9.55969 21.5932 9.31969 21.1932 9.17969 20.7832C9.30969 20.8032 9.43969 20.8132 9.57969 20.8332C9.80969 20.8632 10.0497 20.8932 10.2897 20.9132C10.8597 20.9632 11.4397 20.9932 12.0197 20.9932C12.5897 20.9932 13.1597 20.9632 13.7197 20.9132C13.9297 20.8932 14.1397 20.8832 14.3397 20.8532C14.4997 20.8332 14.6597 20.8132 14.8297 20.7932Z" fill="#0ABFAC"/>
</svg>
