<svg xmlns="http://www.w3.org/2000/svg" width="25" height="24" viewBox="0 0 25 24" fill="none">
  <path d="M9.30078 2C6.68078 2 4.55078 4.13 4.55078 6.75C4.55078 9.32 6.56078 11.4 9.18078 11.49C9.26078 11.48 9.34078 11.48 9.40078 11.49C9.42078 11.49 9.43078 11.49 9.45078 11.49C9.46078 11.49 9.46078 11.49 9.47078 11.49C12.0308 11.4 14.0408 9.32 14.0508 6.75C14.0508 4.13 11.9208 2 9.30078 2Z" fill="white"/>
  <path d="M14.3807 14.1499C11.5907 12.2899 7.04074 12.2899 4.23074 14.1499C2.96074 14.9999 2.26074 16.1499 2.26074 17.3799C2.26074 18.6099 2.96074 19.7499 4.22074 20.5899C5.62074 21.5299 7.46074 21.9999 9.30074 21.9999C11.1407 21.9999 12.9807 21.5299 14.3807 20.5899C15.6407 19.7399 16.3407 18.5999 16.3407 17.3599C16.3307 16.1299 15.6407 14.9899 14.3807 14.1499Z" fill="white"/>
  <path d="M20.2911 7.3401C20.4511 9.2801 19.0711 10.9801 17.1611 11.2101C17.1511 11.2101 17.1511 11.2101 17.1411 11.2101H17.1111C17.0511 11.2101 16.9911 11.2101 16.9411 11.2301C15.9711 11.2801 15.0811 10.9701 14.4111 10.4001C15.4411 9.4801 16.0311 8.1001 15.9111 6.6001C15.8411 5.7901 15.5611 5.0501 15.1411 4.4201C15.5211 4.2301 15.9611 4.1101 16.4111 4.0701C18.3711 3.9001 20.1211 5.3601 20.2911 7.3401Z" fill="white"/>
  <path d="M22.291 16.5899C22.211 17.5599 21.591 18.3999 20.551 18.9699C19.551 19.5199 18.291 19.7799 17.041 19.7499C17.761 19.0999 18.181 18.2899 18.261 17.4299C18.361 16.1899 17.771 14.9999 16.591 14.0499C15.921 13.5199 15.141 13.0999 14.291 12.7899C16.501 12.1499 19.281 12.5799 20.991 13.9599C21.911 14.6999 22.381 15.6299 22.291 16.5899Z" fill="white"/>
</svg>