<svg width="25" height="24" viewBox="0 0 25 24" fill="none" xmlns="http://www.w3.org/2000/svg">
<path d="M9.46035 10.87C9.36035 10.86 9.24035 10.86 9.13035 10.87C6.75035 10.79 4.86035 8.84 4.86035 6.44C4.86035 3.99 6.84035 2 9.30035 2C11.7504 2 13.7404 3.99 13.7404 6.44C13.7304 8.84 11.8404 10.79 9.46035 10.87Z" stroke="#A1ABB3" stroke-width="1.5" stroke-linecap="round" stroke-linejoin="round"/>
<path d="M16.7111 4C18.6511 4 20.2111 5.57 20.2111 7.5C20.2111 9.39 18.7111 10.93 16.8411 11C16.7611 10.99 16.6711 10.99 16.5811 11" stroke="#A1ABB3" stroke-width="1.5" stroke-linecap="round" stroke-linejoin="round"/>
<path d="M4.46051 14.56C2.04051 16.18 2.04051 18.82 4.46051 20.43C7.21051 22.27 11.7205 22.27 14.4705 20.43C16.8905 18.81 16.8905 16.17 14.4705 14.56C11.7305 12.73 7.22051 12.73 4.46051 14.56Z" stroke="#A1ABB3" stroke-width="1.5" stroke-linecap="round" stroke-linejoin="round"/>
<path d="M18.6406 20C19.3606 19.85 20.0406 19.56 20.6006 19.13C22.1606 17.96 22.1606 16.03 20.6006 14.86C20.0506 14.44 19.3806 14.16 18.6706 14" stroke="#A1ABB3" stroke-width="1.5" stroke-linecap="round" stroke-linejoin="round"/>
</svg>
