<svg width="25" height="24" viewBox="0 0 25 24" fill="none" xmlns="http://www.w3.org/2000/svg">
<path d="M22.5 12C22.5 13.31 22.25 14.57 21.78 15.72C21.13 15.27 20.34 15 19.5 15C18.56 15 17.69 15.33 17 15.88C16.08 16.61 15.5 17.74 15.5 19C15.5 19.75 15.71 20.46 16.08 21.06C16.12 21.13 16.17 21.2 16.23 21.27C15.08 21.74 13.82 22 12.5 22C6.98 22 2.5 17.52 2.5 12C2.5 6.48 6.98 2 12.5 2C18.02 2 22.5 6.48 22.5 12Z" stroke="#52616B" stroke-width="1.5" stroke-linecap="round" stroke-linejoin="round"/>
<path d="M9.88086 12.0016V10.6115C9.88086 8.89154 11.1009 8.18153 12.5909 9.04153L13.7909 9.73154L14.9908 10.4215C16.4808 11.2815 16.4808 12.6915 14.9908 13.5515L13.7909 14.2415L12.5909 14.9315C11.1009 15.7915 9.88086 15.0915 9.88086 13.3615V12.0016Z" stroke="#52616B" stroke-width="1.5" stroke-miterlimit="10" stroke-linecap="round" stroke-linejoin="round"/>
<path d="M23.5 19C23.5 19.75 23.29 20.46 22.92 21.06C22.71 21.42 22.44 21.74 22.13 22C21.43 22.63 20.51 23 19.5 23C18.04 23 16.77 22.22 16.08 21.06C15.71 20.46 15.5 19.75 15.5 19C15.5 17.74 16.08 16.61 17 15.88C17.69 15.33 18.56 15 19.5 15C21.71 15 23.5 16.79 23.5 19Z" stroke="#52616B" stroke-width="1.5" stroke-miterlimit="10" stroke-linecap="round" stroke-linejoin="round"/>
<path d="M20.9897 18.9805H18.0098" stroke="#52616B" stroke-width="1.5" stroke-miterlimit="10" stroke-linecap="round" stroke-linejoin="round"/>
<path d="M19.5 17.5195V20.5095" stroke="#52616B" stroke-width="1.5" stroke-miterlimit="10" stroke-linecap="round" stroke-linejoin="round"/>
</svg>
