<svg width="28" height="28" viewBox="0 0 28 28" fill="none" xmlns="http://www.w3.org/2000/svg">
<path d="M24.3955 12.9735C24.3955 18.6785 20.2538 24.0218 14.5955 25.5852C14.2105 25.6902 13.7905 25.6902 13.4055 25.5852C7.74713 24.0218 3.60547 18.6785 3.60547 12.9735V7.85183C3.60547 6.89516 4.32882 5.81016 5.22715 5.4485L11.7255 2.78854C13.1838 2.19354 14.8288 2.19354 16.2871 2.78854L22.7855 5.4485C23.6721 5.81016 24.4072 6.89516 24.4072 7.85183L24.3955 12.9735Z" stroke="#52616B" stroke-width="2" stroke-linecap="round" stroke-linejoin="round"/>
<path d="M13.9993 14.5832C15.288 14.5832 16.3327 13.5385 16.3327 12.2498C16.3327 10.9612 15.288 9.9165 13.9993 9.9165C12.7107 9.9165 11.666 10.9612 11.666 12.2498C11.666 13.5385 12.7107 14.5832 13.9993 14.5832Z" stroke="#52616B" stroke-width="2" stroke-miterlimit="10" stroke-linecap="round" stroke-linejoin="round"/>
<path d="M14 14.583V18.083" stroke="#52616B" stroke-width="2" stroke-miterlimit="10" stroke-linecap="round" stroke-linejoin="round"/>
</svg>
