<svg width="24" height="24" viewBox="0 0 24 24" fill="none" xmlns="http://www.w3.org/2000/svg">
<rect width="24" height="24" rx="12" fill="#01579B"/>
<path d="M15.6134 6.93996H7.59339L8.84672 5.68663C9.04005 5.49329 9.04005 5.17329 8.84672 4.97996C8.65339 4.78663 8.33339 4.78663 8.14005 4.97996L6.03339 7.08663C5.98672 7.13329 5.95339 7.18663 5.92672 7.24663C5.90005 7.30663 5.88672 7.37329 5.88672 7.43996C5.88672 7.50663 5.90005 7.57329 5.92672 7.63329C5.95339 7.69329 5.98672 7.74663 6.03339 7.79329L8.14005 9.89996C8.24005 9.99996 8.36672 10.0466 8.49339 10.0466C8.62005 10.0466 8.74672 9.99996 8.84672 9.89996C9.04005 9.70663 9.04005 9.38663 8.84672 9.19329L7.59339 7.93996H15.6134C16.4401 7.93996 17.1134 8.61329 17.1134 9.43996V11.6533C17.1134 11.9266 17.3401 12.1533 17.6134 12.1533C17.8867 12.1533 18.1134 11.9266 18.1134 11.6533V9.43996C18.1134 8.05996 16.9934 6.93996 15.6134 6.93996Z" fill="white"/>
<path d="M18.1134 16.56C18.1134 16.4933 18.1001 16.4267 18.0734 16.3667C18.0467 16.3067 18.0134 16.2533 17.9667 16.2067L15.8601 14.1C15.6667 13.9067 15.3467 13.9067 15.1534 14.1C14.9601 14.2933 14.9601 14.6133 15.1534 14.8067L16.4067 16.06H8.38672C7.56005 16.06 6.88672 15.3867 6.88672 14.56V12.3467C6.88672 12.0733 6.66005 11.8467 6.38672 11.8467C6.11339 11.8467 5.88672 12.0733 5.88672 12.3467V14.56C5.88672 15.94 7.00672 17.06 8.38672 17.06H16.4067L15.1534 18.3133C14.9601 18.5067 14.9601 18.8267 15.1534 19.02C15.2534 19.12 15.3801 19.1667 15.5067 19.1667C15.6334 19.1667 15.7601 19.12 15.8601 19.02L17.9667 16.9133C18.0134 16.8667 18.0467 16.8133 18.0734 16.7533C18.1001 16.6933 18.1134 16.6267 18.1134 16.56Z" fill="white"/>
</svg>
