<svg width="24" height="24" viewBox="0 0 24 24" fill="none" xmlns="http://www.w3.org/2000/svg">
<rect width="24" height="24" rx="12" fill="#1A75FF"/>
<path d="M14.9597 6.06641C13.753 6.06641 12.673 6.65307 11.9997 7.55307C11.3263 6.65307 10.2463 6.06641 9.03967 6.06641C6.99301 6.06641 5.33301 7.73307 5.33301 9.79307C5.33301 10.5864 5.45967 11.3197 5.67967 11.9997C6.73301 15.3331 9.97967 17.3264 11.5863 17.8731C11.813 17.9531 12.1863 17.9531 12.413 17.8731C14.0197 17.3264 17.2663 15.3331 18.3197 11.9997C18.5397 11.3197 18.6663 10.5864 18.6663 9.79307C18.6663 7.73307 17.0063 6.06641 14.9597 6.06641Z" fill="white"/>
</svg>
