<svg width="44" height="44" viewBox="0 0 44 44" fill="none" xmlns="http://www.w3.org/2000/svg">
<rect width="44" height="44" rx="22" fill="#A1ABB3"/>
<path d="M28.07 18.5101L19.51 14.2301C13.76 11.3501 11.4 13.7101 14.28 19.4601L15.15 21.2001C15.4 21.7101 15.4 22.3001 15.15 22.8101L14.28 24.5401C11.4 30.2901 13.75 32.6501 19.51 29.7701L28.07 25.4901C31.91 23.5701 31.91 20.4301 28.07 18.5101ZM24.84 22.7501H19.44C19.03 22.7501 18.69 22.4101 18.69 22.0001C18.69 21.5901 19.03 21.2501 19.44 21.2501H24.84C25.25 21.2501 25.59 21.5901 25.59 22.0001C25.59 22.4101 25.25 22.7501 24.84 22.7501Z" fill="white"/>
</svg>
