<svg width="25" height="26" viewBox="0 0 25 26" fill="none" xmlns="http://www.w3.org/2000/svg">
<path d="M20.9008 6.64689L20.6365 21.1445C20.6291 21.5496 20.1566 21.7812 19.8282 21.5289C19.8279 21.5287 19.8277 21.5285 19.8274 21.5283L17.8595 19.9956C17.8592 19.9953 17.8588 19.995 17.8585 19.9948C17.7334 19.8955 17.6616 19.741 17.6643 19.59L17.9287 5.09244C17.936 4.68737 18.4085 4.45573 18.7369 4.70798L20.7067 6.24218C20.8317 6.34141 20.9036 6.49596 20.9008 6.64689Z" fill="#0ABFAC" stroke="#0ABFAC"/>
<path d="M14.4291 5.02848L14.1648 19.5261C14.162 19.677 14.0846 19.8289 13.956 19.9235C13.9557 19.9237 13.9553 19.924 13.955 19.9242L11.9325 21.3842C11.9322 21.3844 11.932 21.3846 11.9317 21.3848C11.5943 21.6249 11.1306 21.3762 11.138 20.9711L11.4023 6.47354C11.405 6.32261 11.4825 6.17079 11.6111 6.07618L13.6354 4.61481C13.9728 4.37469 14.4365 4.6234 14.4291 5.02848Z" fill="#0ABFAC" stroke="#0ABFAC"/>
<path d="M7.90277 6.41007L7.63843 20.9077C7.63105 21.3127 7.15854 21.5444 6.83014 21.2921C6.82988 21.2919 6.82961 21.2917 6.82935 21.2915L4.86146 19.7588C4.86113 19.7585 4.86079 19.7582 4.86046 19.758C4.73537 19.6587 4.66352 19.5042 4.66628 19.3532L4.93061 4.85563C4.93799 4.45055 5.41049 4.21891 5.73888 4.47116L7.70863 6.00536C7.83369 6.1046 7.90552 6.25914 7.90277 6.41007Z" fill="#0ABFAC" stroke="#0ABFAC"/>
</svg>
