<svg width="25" height="26" viewBox="0 0 25 26" fill="none" xmlns="http://www.w3.org/2000/svg">
<path d="M21.1359 21.1536L21.4002 6.65603C21.4057 6.35608 21.3112 6.0543 21.0149 5.84887L19.0426 4.31266C18.3518 3.79998 17.4428 4.28349 17.4282 5.08336L17.1639 19.5809C17.1584 19.8809 17.2529 20.1827 17.5492 20.3881L19.5216 21.9243C20.2123 22.437 21.1213 21.9535 21.1359 21.1536Z" stroke="#52616B" stroke-width="1.5" stroke-miterlimit="10"/>
<path d="M14.9288 5.03811L14.6645 19.5357C14.659 19.8357 14.5535 20.1338 14.2499 20.3283L12.2229 21.7916C11.5139 22.2787 10.6232 21.7624 10.6378 20.9625L10.9021 6.46494C10.9076 6.16499 11.013 5.86686 11.3166 5.67237L13.3436 4.20908C14.0526 3.72192 14.9434 4.23824 14.9288 5.03811Z" stroke="#52616B" stroke-width="1.5" stroke-miterlimit="10"/>
<path d="M8.13809 20.9163L8.40242 6.41872C8.40789 6.11877 8.31337 5.817 8.01707 5.61156L6.04475 4.07535C5.35398 3.56267 4.44501 4.04618 4.43043 4.84605L4.1661 19.3436C4.16063 19.6436 4.25514 19.9454 4.55145 20.1508L6.52377 21.687C7.21454 22.1997 8.1235 21.7162 8.13809 20.9163Z" stroke="#52616B" stroke-width="1.5" stroke-miterlimit="10"/>
</svg>
