<svg width="28" height="28" viewBox="0 0 28 28" fill="none" xmlns="http://www.w3.org/2000/svg">
<path d="M19.834 21.5017H15.1673L9.97564 24.955C9.20564 25.4683 8.16732 24.92 8.16732 23.9867V21.5017C4.66732 21.5017 2.33398 19.1684 2.33398 15.6684V8.66829C2.33398 5.16829 4.66732 2.83496 8.16732 2.83496H19.834C23.334 2.83496 25.6673 5.16829 25.6673 8.66829V15.6684C25.6673 19.1684 23.334 21.5017 19.834 21.5017Z" stroke="#52616B" stroke-width="2" stroke-miterlimit="10" stroke-linecap="round" stroke-linejoin="round"/>
<path d="M13.9991 13.2534V13.0085C13.9991 12.2151 14.4892 11.7951 14.9792 11.4568C15.4575 11.1301 15.9358 10.7101 15.9358 9.94012C15.9358 8.86679 15.0725 8.00342 13.9991 8.00342C12.9258 8.00342 12.0625 8.86679 12.0625 9.94012" stroke="#52616B" stroke-width="2" stroke-linecap="round" stroke-linejoin="round"/>
<path d="M13.9941 16.0418H14.0046" stroke="#52616B" stroke-width="2" stroke-linecap="round" stroke-linejoin="round"/>
</svg>
