<svg xmlns="http://www.w3.org/2000/svg" width="25" height="24" viewBox="0 0 25 24" fill="none">
  <path d="M18.7005 2.1L8.77048 4.59C7.32048 4.95 5.85048 6.42 5.49048 7.87L3.00048 17.8C2.25048 20.8 4.09048 22.65 7.10048 21.9L17.0305 19.42C18.4705 19.06 19.9505 17.58 20.3105 16.14L22.8005 6.2C23.5505 3.2 21.7005 1.35 18.7005 2.1Z" stroke="#A1ABB3" stroke-width="1.5" stroke-linecap="round" stroke-linejoin="round"/>
  <path d="M12.9004 15.5C14.8334 15.5 16.4004 13.933 16.4004 12C16.4004 10.067 14.8334 8.5 12.9004 8.5C10.9674 8.5 9.40039 10.067 9.40039 12C9.40039 13.933 10.9674 15.5 12.9004 15.5Z" stroke="#A1ABB3" stroke-width="1.5" stroke-linecap="round" stroke-linejoin="round"/>
</svg>