<svg width="25" height="24" viewBox="0 0 25 24" fill="none" xmlns="http://www.w3.org/2000/svg">
<path d="M21.8798 3.01986C21.0098 2.14986 19.7798 1.80986 18.5898 2.10986L8.78976 4.55986C7.13976 4.96986 5.86976 6.24986 5.45976 7.88986L3.00976 17.6999C2.70976 18.8899 3.04976 20.1199 3.91976 20.9899C4.57976 21.6399 5.44976 21.9999 6.34976 21.9999C6.62976 21.9999 6.91976 21.9699 7.19976 21.8899L17.0098 19.4399C18.6498 19.0299 19.9298 17.7599 20.3398 16.1099L22.7898 6.29986C23.0898 5.10986 22.7498 3.87986 21.8798 3.01986ZM12.8998 15.8799C10.7598 15.8799 9.01976 14.1399 9.01976 11.9999C9.01976 9.85986 10.7598 8.11986 12.8998 8.11986C15.0398 8.11986 16.7798 9.85986 16.7798 11.9999C16.7798 14.1399 15.0398 15.8799 12.8998 15.8799Z" fill="white"/>
</svg>
