<svg width="25" height="24" viewBox="0 0 25 24" fill="none" xmlns="http://www.w3.org/2000/svg">
<path d="M21.832 5.98047C18.502 5.65047 15.152 5.48047 11.812 5.48047C9.83203 5.48047 7.85203 5.58047 5.87203 5.78047L3.83203 5.98047" stroke="#52616B" stroke-width="1.5" stroke-linecap="round" stroke-linejoin="round"/>
<path d="M9.33203 4.97L9.55203 3.66C9.71203 2.71 9.83203 2 11.522 2H14.142C15.832 2 15.962 2.75 16.112 3.67L16.332 4.97" stroke="#52616B" stroke-width="1.5" stroke-linecap="round" stroke-linejoin="round"/>
<path d="M19.6824 9.14062L19.0324 19.2106C18.9224 20.7806 18.8324 22.0006 16.0424 22.0006H9.62242C6.83242 22.0006 6.74242 20.7806 6.63242 19.2106L5.98242 9.14062" stroke="#52616B" stroke-width="1.5" stroke-linecap="round" stroke-linejoin="round"/>
<path d="M11.1621 16.5H14.4921" stroke="#52616B" stroke-width="1.5" stroke-linecap="round" stroke-linejoin="round"/>
<path d="M10.332 12.5H15.332" stroke="#52616B" stroke-width="1.5" stroke-linecap="round" stroke-linejoin="round"/>
</svg>
