<svg width="28" height="28" viewBox="0 0 28 28" fill="none" xmlns="http://www.w3.org/2000/svg">
<path d="M17.9545 6.0785L19.5994 9.36849C19.8211 9.82349 20.4161 10.2551 20.9178 10.3485L23.8928 10.8385C25.7945 11.1535 26.2378 12.5302 24.8728 13.9068L22.5511 16.2285C22.1661 16.6135 21.9445 17.3718 22.0728 17.9202L22.7378 20.7902C23.2628 23.0535 22.0495 23.9402 20.0545 22.7502L17.2661 21.0935C16.7644 20.7902 15.9245 20.7902 15.4228 21.0935L12.6344 22.7502C10.6394 23.9285 9.42612 23.0535 9.95112 20.7902L10.6161 17.9202C10.7445 17.3835 10.5228 16.6252 10.1378 16.2285L7.81613 13.9068C6.45113 12.5418 6.89446 11.1651 8.79613 10.8385L11.7711 10.3485C12.2728 10.2668 12.8678 9.82349 13.0895 9.36849L14.7345 6.0785C15.6095 4.2935 17.0561 4.2935 17.9545 6.0785Z" stroke="#52616B" stroke-width="2" stroke-linecap="round" stroke-linejoin="round"/>
<path d="M9.33398 5.8335H2.33398" stroke="#52616B" stroke-width="2" stroke-linecap="round" stroke-linejoin="round"/>
<path d="M5.83398 22.1665H2.33398" stroke="#52616B" stroke-width="2" stroke-linecap="round" stroke-linejoin="round"/>
<path d="M3.50065 14H2.33398" stroke="#52616B" stroke-width="2" stroke-linecap="round" stroke-linejoin="round"/>
</svg>
