<svg width="28" height="28" viewBox="0 0 28 28" fill="none" xmlns="http://www.w3.org/2000/svg">
<path d="M15.166 10.5H8.16602" stroke="#52616B" stroke-width="2" stroke-linecap="round" stroke-linejoin="round"/>
<path d="M25.6676 12.7984V15.2018C25.6676 15.8434 25.1542 16.3684 24.5009 16.3917H22.2142C20.9542 16.3917 19.7992 15.47 19.6942 14.21C19.6242 13.475 19.9042 12.7867 20.3942 12.3084C20.8259 11.865 21.4209 11.6084 22.0742 11.6084H24.5009C25.1542 11.6317 25.6676 12.1567 25.6676 12.7984Z" stroke="#52616B" stroke-width="2" stroke-linecap="round" stroke-linejoin="round"/>
<path d="M20.394 12.3085C19.904 12.7868 19.624 13.4752 19.694 14.2102C19.799 15.4702 20.954 16.3918 22.214 16.3918H24.5007V18.0835C24.5007 21.5835 22.1673 23.9168 18.6673 23.9168H8.16732C4.66732 23.9168 2.33398 21.5835 2.33398 18.0835V9.91683C2.33398 6.7435 4.24732 4.52683 7.22232 4.15349C7.52565 4.10683 7.84065 4.0835 8.16732 4.0835H18.6673C18.9707 4.0835 19.2623 4.09515 19.5423 4.14182C22.5523 4.49182 24.5007 6.72016 24.5007 9.91683V11.6085H22.074C21.4206 11.6085 20.8256 11.8651 20.394 12.3085Z" stroke="#52616B" stroke-width="2" stroke-linecap="round" stroke-linejoin="round"/>
</svg>
