<svg width="24" height="25" viewBox="0 0 24 25" fill="none" xmlns="http://www.w3.org/2000/svg">
<path d="M22 12.7832V17.7832C22 20.7832 20 22.7832 17 22.7832H7C4 22.7832 2 20.7832 2 17.7832V12.7832C2 10.0632 3.64 8.1632 6.19 7.8432C6.45 7.8032 6.72 7.7832 7 7.7832H17C17.26 7.7832 17.51 7.79319 17.75 7.83319C20.33 8.13319 22 10.0432 22 12.7832Z" stroke="#52616B" stroke-width="1.5" stroke-linecap="round" stroke-linejoin="round"/>
<path d="M17.7514 7.8332C17.5114 7.7932 17.2614 7.78321 17.0014 7.78321H7.00141C6.72141 7.78321 6.45141 7.80321 6.19141 7.84321C6.33141 7.56321 6.53141 7.30321 6.77141 7.06321L10.0214 3.8032C11.3914 2.4432 13.6114 2.4432 14.9814 3.8032L16.7314 5.57322C17.3714 6.20322 17.7114 7.0032 17.7514 7.8332Z" stroke="#52616B" stroke-width="1.5" stroke-linecap="round" stroke-linejoin="round"/>
<path d="M22 13.2832H19C17.9 13.2832 17 14.1832 17 15.2832C17 16.3832 17.9 17.2832 19 17.2832H22" stroke="#292D32" stroke-width="1.5" stroke-linecap="round" stroke-linejoin="round"/>
</svg>
