<svg width="16" height="16" viewBox="0 0 16 16" fill="none" xmlns="http://www.w3.org/2000/svg">
<path d="M14.2359 6.02854L10.2388 5.42023L8.45201 1.62694C8.40321 1.52308 8.32292 1.43901 8.22374 1.3879C7.97501 1.25932 7.67274 1.36647 7.54838 1.62694L5.76158 5.42023L1.76451 6.02854C1.65431 6.04503 1.55355 6.09943 1.47642 6.18186C1.38316 6.28223 1.33177 6.41727 1.33354 6.5573C1.33531 6.69733 1.3901 6.83089 1.48586 6.92864L4.3778 9.88118L3.69456 14.0503C3.67854 14.1473 3.68879 14.2471 3.72415 14.3383C3.7595 14.4295 3.81855 14.5084 3.8946 14.5663C3.97065 14.6241 4.06065 14.6585 4.15441 14.6655C4.24816 14.6725 4.34191 14.6518 4.42502 14.6059L8.00019 12.6375L11.5754 14.6059C11.673 14.6603 11.7863 14.6784 11.8949 14.6586C12.1689 14.6092 12.3531 14.3372 12.3058 14.0503L11.6226 9.88118L14.5145 6.92864C14.5932 6.84787 14.6452 6.74236 14.6609 6.62696C14.7034 6.33847 14.5114 6.0714 14.2359 6.02854Z" fill="#FFAE10"/>
</svg>
