<svg width="20" height="24" viewBox="0 0 20 24" fill="none" xmlns="http://www.w3.org/2000/svg">
<path d="M10.2924 5.53846C11.3859 5.53846 12.7566 4.8061 13.5729 3.82962C14.3122 2.94469 14.8513 1.70884 14.8513 0.472982C14.8513 0.30515 14.8359 0.137317 14.8051 0C13.5883 0.0457724 12.1252 0.808646 11.2473 1.8309C10.5542 2.60903 9.92271 3.82962 9.92271 5.08074C9.92271 5.26383 9.95352 5.44692 9.96892 5.50795C10.0459 5.5232 10.1691 5.53846 10.2924 5.53846ZM6.44191 24C7.93588 24 8.59816 23.0083 10.4618 23.0083C12.3562 23.0083 12.772 23.9695 14.4354 23.9695C16.068 23.9695 17.1616 22.4743 18.1935 21.0095C19.3486 19.3312 19.8261 17.6834 19.8569 17.6071C19.7491 17.5766 16.6225 16.3102 16.6225 12.7552C16.6225 9.67324 19.0868 8.28481 19.2254 8.178C17.5928 5.85887 15.1131 5.79784 14.4354 5.79784C12.6026 5.79784 11.1086 6.89638 10.1691 6.89638C9.15262 6.89638 7.81267 5.85887 6.22628 5.85887C3.20753 5.85887 0.142578 8.33058 0.142578 12.9994C0.142578 15.8983 1.28231 18.965 2.68387 20.9485C3.88521 22.6268 4.93253 24 6.44191 24Z" fill="#000100"/>
</svg>
