<svg width="25" height="24" viewBox="0 0 25 24" fill="none" xmlns="http://www.w3.org/2000/svg">
<path fill-rule="evenodd" clip-rule="evenodd" d="M24.27 12.2729C24.27 11.422 24.1936 10.6038 24.0518 9.81836H12.75V14.4602H19.2082C18.93 15.9602 18.0845 17.2311 16.8136 18.082V21.0929H20.6918C22.9609 19.0038 24.27 15.9275 24.27 12.2729Z" fill="#4285F4"/>
<path fill-rule="evenodd" clip-rule="evenodd" d="M12.75 24.0003C15.99 24.0003 18.7064 22.9257 20.6918 21.093L16.8136 18.0821C15.7391 18.8021 14.3646 19.2275 12.75 19.2275C9.62455 19.2275 6.9791 17.1166 6.03546 14.2803H2.02637V17.3894C4.00091 21.3112 8.0591 24.0003 12.75 24.0003Z" fill="#34A853"/>
<path fill-rule="evenodd" clip-rule="evenodd" d="M6.03546 14.2804C5.79546 13.5604 5.65909 12.7913 5.65909 12.0004C5.65909 11.2095 5.79546 10.4404 6.03546 9.72042V6.61133H2.02636C1.21364 8.23133 0.75 10.0641 0.75 12.0004C0.75 13.9368 1.21364 15.7695 2.02636 17.3895L6.03546 14.2804Z" fill="#FBBC05"/>
<path fill-rule="evenodd" clip-rule="evenodd" d="M12.75 4.77273C14.5118 4.77273 16.0936 5.37818 17.3373 6.56727L20.7791 3.12546C18.7009 1.18909 15.9846 0 12.75 0C8.0591 0 4.00091 2.68909 2.02637 6.61091L6.03546 9.72C6.9791 6.88364 9.62455 4.77273 12.75 4.77273Z" fill="#EA4335"/>
</svg>
